<svg width="578" height="662" viewBox="0 0 578 662" fill="none" xmlns="http://www.w3.org/2000/svg">
<path d="M207.778 523.811L391.612 632.479L400.548 618.416V415.143L230.757 310.311H207.778V523.811Z" fill="#F97210"/>
<path d="M391.613 631.2V408.751L515.445 317.982L578 310.311V523.811L391.613 631.2Z" fill="#FBCB85"/>
<path d="M391.612 204.2L576.723 310.311L391.612 418.979L209.055 310.311L391.612 204.2Z" fill="#F7962A"/>
<path d="M316.137 584.178L186.029 661.088L179.704 651.135V507.269L299.874 433.074H316.137V584.178Z" fill="#F97210"/>
<path d="M186.094 660.183V502.745L98.4517 438.503L54.1787 433.074V584.178L186.094 660.183Z" fill="#FBCB85"/>
<path d="M186.028 357.802L55.0165 432.902L186.028 509.811L315.233 432.902L186.028 357.802Z" fill="#F7962A"/>
<path d="M370.222 319.611L186.388 428.279L177.452 414.216V210.943L347.243 106.111H370.222V319.611Z" fill="#F97210"/>
<path d="M186.387 427V204.551L62.5546 113.781L0 106.111V319.611L186.387 427Z" fill="#FBCB85"/>
<path d="M186.388 0L1.2771 106.111L186.388 214.778L368.945 106.111L186.388 0Z" fill="#F7962A"/>
<path d="M261.863 379.978L391.971 456.887L398.296 446.934V303.069L278.126 228.874H261.863V379.978Z" fill="#F97210"/>
<path d="M391.906 455.983V298.545L479.548 234.303L523.821 228.874V379.978L391.906 455.983Z" fill="#FBCB85"/>
<path d="M391.972 153.602L522.984 228.702L391.972 305.611L262.767 228.702L391.972 153.602Z" fill="#F7962A"/>
</svg>
