<svg width="420" height="528" viewBox="0 0 420 528" fill="none" xmlns="http://www.w3.org/2000/svg">
<path d="M295.564 418.181L148.802 504.935L141.667 493.708V331.427L277.219 247.735H295.564V418.181Z" fill="#F97210"/>
<path d="M148.801 503.915V326.324L49.9401 253.859L0 247.735V418.181L148.801 503.915Z" fill="#FBCB85"/>
<path d="M148.801 163.022L1.01941 247.735L148.801 334.489L294.545 247.735L148.801 163.022Z" fill="#F7962A"/>
<path d="M209.055 466.375L312.926 527.775L317.976 519.829V404.975L222.039 345.742H209.055V466.375Z" fill="#F97210"/>
<path d="M312.875 527.053V401.363L382.843 350.076L418.188 345.742V466.375L312.875 527.053Z" fill="#FBCB85"/>
<path d="M312.927 285.649L417.519 345.605L312.927 407.005L209.777 345.605L312.927 285.649Z" fill="#F7962A"/>
<path d="M123.812 255.159L270.575 341.913L277.709 330.686V168.405L142.158 84.7129H123.812V255.159Z" fill="#F97210"/>
<path d="M270.576 340.893V163.302L369.437 90.8367L419.377 84.7129V255.159L270.576 340.893Z" fill="#FBCB85"/>
<path d="M270.575 0L418.357 84.7129L270.575 171.467L124.832 84.7129L270.575 0Z" fill="#F7962A"/>
<path d="M210.321 303.353L106.45 364.753L101.401 356.807V241.953L197.338 182.72H210.321V303.353Z" fill="#F97210"/>
<path d="M106.502 364.031V238.341L36.5334 187.054L1.18835 182.72V303.353L106.502 364.031Z" fill="#FBCB85"/>
<path d="M106.45 122.627L1.85718 182.583L106.45 243.983L209.599 182.583L106.45 122.627Z" fill="#F7962A"/>
</svg>
