<svg width="20" height="20" viewBox="0 0 20 20" fill="none" xmlns="http://www.w3.org/2000/svg">
<path d="M0.666672 9.99996C0.666672 15.1546 4.84535 19.3333 10 19.3333C15.1547 19.3333 19.3333 15.1546 19.3333 9.99996C19.3333 4.8453 15.1547 0.666626 10 0.666626C4.84535 0.666626 0.666672 4.8453 0.666672 9.99996Z" fill="#141414"/>
<path d="M10 19.3333C4.84535 19.3333 0.666672 15.1546 0.666672 9.99996C0.666672 4.8453 4.84535 0.666626 10 0.666626C15.1547 0.666626 19.3333 4.8453 19.3333 9.99996C19.3333 15.1546 15.1547 19.3333 10 19.3333ZM10 19.3333V8.66663C10 7.19387 11.1939 5.99996 12.6667 5.99996H13.3333M6.66667 11.3333H13.3333" stroke="white"/>
</svg>
