<svg width="20" height="20" viewBox="0 0 20 20" fill="none" xmlns="http://www.w3.org/2000/svg">
<path d="M14 0.666626H6C3.05449 0.666626 0.666672 3.05444 0.666672 5.99996V14C0.666672 16.9455 3.05449 19.3333 6 19.3333H14C16.9455 19.3333 19.3333 16.9455 19.3333 14V5.99996C19.3333 3.05444 16.9455 0.666626 14 0.666626Z" fill="#141414"/>
<path d="M6 9.99996C6 12.2091 7.79087 14 10 14C12.2091 14 14 12.2091 14 9.99996C14 7.79082 12.2091 5.99996 10 5.99996C7.79087 5.99996 6 7.79082 6 9.99996Z" fill="#141414"/>
<path d="M14.6667 4.66663H16M6 0.666626H14C16.9455 0.666626 19.3333 3.05444 19.3333 5.99996V14C19.3333 16.9455 16.9455 19.3333 14 19.3333H6C3.05449 19.3333 0.666672 16.9455 0.666672 14V5.99996C0.666672 3.05444 3.05449 0.666626 6 0.666626ZM10 14C7.79087 14 6 12.2091 6 9.99996C6 7.79082 7.79087 5.99996 10 5.99996C12.2091 5.99996 14 7.79082 14 9.99996C14 12.2091 12.2091 14 10 14Z" stroke="white"/>
</svg>
